<svg xmlns="http://www.w3.org/2000/svg" xmlns:xlink="http://www.w3.org/1999/xlink" width="1080" zoomAndPan="magnify" viewBox="0 0 810 1439.999935" height="1920" preserveAspectRatio="xMidYMid meet" version="1.0"><defs><filter x="0%" y="0%" width="100%" height="100%" id="0cdd690736"><feColorMatrix values="0 0 0 0 1 0 0 0 0 1 0 0 0 0 1 0 0 0 1 0" color-interpolation-filters="sRGB"/></filter><g/><clipPath id="7e25750c30"><path d="M 352 680 L 403 680 L 403 763 L 352 763 Z M 352 680 " clip-rule="nonzero"/></clipPath><clipPath id="8269bf759f"><path d="M 402.699219 765.277344 L 242.398438 761.023438 L 244.695312 674.4375 L 404.996094 678.691406 Z M 402.699219 765.277344 " clip-rule="nonzero"/></clipPath><clipPath id="fec85333e9"><path d="M 402.699219 765.277344 L 242.398438 761.023438 L 244.695312 674.4375 L 404.996094 678.691406 Z M 402.699219 765.277344 " clip-rule="nonzero"/></clipPath><clipPath id="ce09e725e7"><path d="M 266 677 L 317 677 L 317 761 L 266 761 Z M 266 677 " clip-rule="nonzero"/></clipPath><clipPath id="76513a95d2"><path d="M 402.699219 765.277344 L 242.398438 761.023438 L 244.695312 674.4375 L 404.996094 678.691406 Z M 402.699219 765.277344 " clip-rule="nonzero"/></clipPath><clipPath id="b4c8b4432c"><path d="M 402.699219 765.277344 L 242.398438 761.023438 L 244.695312 674.4375 L 404.996094 678.691406 Z M 402.699219 765.277344 " clip-rule="nonzero"/></clipPath><clipPath id="61706e043f"><path d="M 246 676 L 403 676 L 403 763 L 246 763 Z M 246 676 " clip-rule="nonzero"/></clipPath><clipPath id="0d4e5a1ef7"><path d="M 402.699219 765.277344 L 242.398438 761.023438 L 244.695312 674.4375 L 404.996094 678.691406 Z M 402.699219 765.277344 " clip-rule="nonzero"/></clipPath><clipPath id="1ca99347d6"><path d="M 402.699219 765.277344 L 242.398438 761.023438 L 244.695312 674.4375 L 404.996094 678.691406 Z M 402.699219 765.277344 " clip-rule="nonzero"/></clipPath><mask id="dbdee9b591"><g filter="url(#0cdd690736)"><rect x="-81" width="972" fill="#000000" y="-143.999994" height="1727.999922" fill-opacity="0.8392"/></g></mask><clipPath id="7249480acd"><rect x="0" width="111" y="0" height="85"/></clipPath><mask id="6641f8e683"><g filter="url(#0cdd690736)"><rect x="-81" width="972" fill="#000000" y="-143.999994" height="1727.999922" fill-opacity="0.8392"/></g></mask><clipPath id="ef013726d8"><rect x="0" width="210" y="0" height="85"/></clipPath></defs><path fill="#3eadcf" d="M 349.042969 681.625 C 355.921875 684.308594 359.359375 692.152344 356.640625 699.070312 L 334.925781 755.175781 C 332.257812 762.089844 324.453125 765.550781 317.574219 762.867188 C 310.746094 760.183594 307.308594 752.335938 309.976562 745.421875 L 331.691406 689.261719 C 334.363281 682.398438 342.164062 678.941406 349.042969 681.625 " fill-opacity="1" fill-rule="evenodd"/><path fill="#abe9cd" d="M 435.746094 681.625 C 442.625 684.308594 446.066406 692.152344 443.394531 699.070312 L 421.628906 755.175781 C 418.960938 762.089844 411.15625 765.550781 404.332031 762.867188 C 397.449219 760.183594 394.011719 752.335938 396.683594 745.421875 L 418.394531 689.261719 C 421.066406 682.398438 428.867188 678.941406 435.746094 681.625 " fill-opacity="1" fill-rule="evenodd"/><path fill="#3eadcf" d="M 349.042969 681.625 C 342.164062 678.941406 334.363281 682.398438 331.691406 689.261719 L 309.976562 745.421875 C 307.308594 752.335938 310.746094 760.183594 317.574219 762.867188 C 324.453125 765.550781 332.257812 762.089844 334.925781 755.175781 L 356.640625 699.070312 C 359.359375 692.152344 355.921875 684.308594 349.042969 681.625 Z M 425.890625 681.625 C 419.011719 684.308594 415.574219 692.152344 418.242188 699.070312 L 439.957031 755.175781 C 442.675781 762.089844 450.480469 765.550781 457.308594 762.867188 C 464.1875 760.183594 467.625 752.335938 464.957031 745.421875 L 443.191406 689.261719 C 440.519531 682.398438 432.71875 678.941406 425.890625 681.625 Z M 392.421875 681.625 C 399.246094 684.308594 402.6875 692.152344 400.019531 699.070312 L 378.304688 755.175781 C 375.632812 762.089844 367.832031 765.550781 360.953125 762.867188 C 354.074219 760.183594 350.632812 752.335938 353.304688 745.421875 L 375.070312 689.261719 C 377.738281 682.398438 385.542969 678.941406 392.421875 681.625 " fill-opacity="1" fill-rule="evenodd"/><g clip-path="url(#7e25750c30)"><g clip-path="url(#8269bf759f)"><g clip-path="url(#fec85333e9)"><path fill="#3eadcf" d="M 361.035156 761.484375 C 354.230469 758.621094 351 750.6875 353.90625 743.84375 L 377.101562 688.332031 C 379.953125 681.492188 387.84375 678.242188 394.648438 681.105469 C 401.402344 683.972656 404.632812 691.90625 401.78125 698.746094 L 378.582031 754.308594 C 375.734375 761.101562 367.84375 764.351562 361.035156 761.484375 " fill-opacity="1" fill-rule="evenodd"/></g></g></g><g clip-path="url(#ce09e725e7)"><g clip-path="url(#76513a95d2)"><g clip-path="url(#b4c8b4432c)"><path fill="#abe9cd" d="M 274.363281 759.183594 C 267.558594 756.320312 264.328125 748.386719 267.179688 741.542969 L 290.425781 686.03125 C 293.277344 679.191406 301.171875 675.941406 307.921875 678.804688 C 314.730469 681.671875 317.960938 689.605469 315.105469 696.449219 L 291.910156 752.007812 C 289.058594 758.800781 281.167969 762.050781 274.363281 759.183594 " fill-opacity="1" fill-rule="evenodd"/></g></g></g><g clip-path="url(#61706e043f)"><g clip-path="url(#0d4e5a1ef7)"><g clip-path="url(#1ca99347d6)"><path fill="#3eadcf" d="M 361.035156 761.484375 C 367.84375 764.351562 375.734375 761.101562 378.582031 754.308594 L 401.78125 698.746094 C 404.632812 691.90625 401.402344 683.972656 394.648438 681.105469 C 387.84375 678.242188 379.953125 681.492188 377.101562 688.332031 L 353.90625 743.84375 C 351 750.6875 354.230469 758.621094 361.035156 761.484375 Z M 284.21875 759.445312 C 291.164062 756.945312 294.808594 749.195312 292.324219 742.210938 L 272.105469 685.546875 C 269.570312 678.5625 261.863281 674.898438 254.964844 677.398438 C 248.019531 679.898438 244.371094 687.652344 246.855469 694.636719 L 267.125 751.351562 C 269.613281 758.285156 277.320312 761.949219 284.21875 759.445312 Z M 317.675781 760.332031 C 310.921875 757.46875 307.691406 749.535156 310.542969 742.691406 L 333.738281 687.183594 C 336.589844 680.339844 344.480469 677.089844 351.285156 679.953125 C 358.09375 682.820312 361.320312 690.753906 358.46875 697.597656 L 335.222656 753.160156 C 332.371094 759.949219 324.480469 763.199219 317.675781 760.332031 " fill-opacity="1" fill-rule="evenodd"/></g></g></g><g mask="url(#dbdee9b591)"><g transform="matrix(1, 0, 0, 1, 140, 680)"><g clip-path="url(#7249480acd)"><g fill="#abe9cd" fill-opacity="1"><g transform="translate(2.250884, 67.94008)"><g><path d="M 20.515625 -20.65625 C 20.191406 -20.65625 19.925781 -20.550781 19.71875 -20.34375 C 19.507812 -20.132812 19.40625 -19.890625 19.40625 -19.609375 L 19.40625 -2.015625 C 19.40625 -1.273438 19.21875 -0.753906 18.84375 -0.453125 C 18.476562 -0.148438 17.898438 0 17.109375 0 L 5.5 0 C 4.800781 0 4.3125 -0.132812 4.03125 -0.40625 C 3.75 -0.6875 3.609375 -1.128906 3.609375 -1.734375 L 3.609375 -50 C 3.609375 -50.507812 3.722656 -50.90625 3.953125 -51.1875 C 4.191406 -51.46875 4.519531 -51.609375 4.9375 -51.609375 L 18.15625 -51.609375 C 18.519531 -51.609375 18.816406 -51.476562 19.046875 -51.21875 C 19.285156 -50.96875 19.40625 -50.609375 19.40625 -50.140625 L 19.40625 -34.015625 C 19.40625 -33.085938 19.820312 -32.625 20.65625 -32.625 L 32.34375 -32.625 C 33.175781 -32.625 33.59375 -33.085938 33.59375 -34.015625 L 33.59375 -50.140625 C 33.59375 -50.609375 33.707031 -50.96875 33.9375 -51.21875 C 34.164062 -51.476562 34.46875 -51.609375 34.84375 -51.609375 L 48.0625 -51.609375 C 48.476562 -51.609375 48.800781 -51.46875 49.03125 -51.1875 C 49.257812 -50.90625 49.375 -50.507812 49.375 -50 L 49.375 -1.734375 C 49.375 -1.128906 49.234375 -0.6875 48.953125 -0.40625 C 48.679688 -0.132812 48.195312 0 47.5 0 L 35.890625 0 C 35.097656 0 34.515625 -0.148438 34.140625 -0.453125 C 33.773438 -0.753906 33.59375 -1.273438 33.59375 -2.015625 L 33.59375 -19.609375 C 33.59375 -19.890625 33.488281 -20.132812 33.28125 -20.34375 C 33.070312 -20.550781 32.804688 -20.65625 32.484375 -20.65625 Z M 20.515625 -20.65625 "/></g></g></g><g fill="#abe9cd" fill-opacity="1"><g transform="translate(55.242759, 67.94008)"><g><path d="M 27.1875 0.703125 C 22.132812 0.703125 17.71875 -0.375 13.9375 -2.53125 C 10.164062 -4.6875 7.257812 -7.75 5.21875 -11.71875 C 3.175781 -15.6875 2.15625 -20.332031 2.15625 -25.65625 C 2.15625 -30.988281 3.1875 -35.660156 5.25 -39.671875 C 7.3125 -43.679688 10.234375 -46.785156 14.015625 -48.984375 C 17.796875 -51.191406 22.1875 -52.296875 27.1875 -52.296875 C 32.15625 -52.296875 36.515625 -51.191406 40.265625 -48.984375 C 44.023438 -46.785156 46.9375 -43.679688 49 -39.671875 C 51.0625 -35.660156 52.09375 -30.988281 52.09375 -25.65625 C 52.09375 -20.375 51.070312 -15.738281 49.03125 -11.75 C 46.988281 -7.757812 44.085938 -4.6875 40.328125 -2.53125 C 36.578125 -0.375 32.195312 0.703125 27.1875 0.703125 Z M 27.1875 -10.15625 C 29.226562 -10.15625 30.851562 -10.648438 32.0625 -11.640625 C 33.269531 -12.640625 34.148438 -14.253906 34.703125 -16.484375 C 35.253906 -18.710938 35.53125 -21.703125 35.53125 -25.453125 C 35.53125 -31.203125 34.878906 -35.328125 33.578125 -37.828125 C 32.285156 -40.335938 30.15625 -41.59375 27.1875 -41.59375 C 24.175781 -41.59375 22.007812 -40.335938 20.6875 -37.828125 C 19.363281 -35.328125 18.703125 -31.203125 18.703125 -25.453125 C 18.703125 -21.703125 18.976562 -18.710938 19.53125 -16.484375 C 20.09375 -14.253906 20.988281 -12.640625 22.21875 -11.640625 C 23.445312 -10.648438 25.101562 -10.15625 27.1875 -10.15625 Z M 27.1875 -10.15625 "/></g></g></g></g></g></g><g mask="url(#6641f8e683)"><g transform="matrix(1, 0, 0, 1, 463, 680)"><g clip-path="url(#ef013726d8)"><g fill="#abe9cd" fill-opacity="1"><g transform="translate(1.248166, 67.94008)"><g><path d="M 27.1875 0.703125 C 22.132812 0.703125 17.71875 -0.375 13.9375 -2.53125 C 10.164062 -4.6875 7.257812 -7.75 5.21875 -11.71875 C 3.175781 -15.6875 2.15625 -20.332031 2.15625 -25.65625 C 2.15625 -30.988281 3.1875 -35.660156 5.25 -39.671875 C 7.3125 -43.679688 10.234375 -46.785156 14.015625 -48.984375 C 17.796875 -51.191406 22.1875 -52.296875 27.1875 -52.296875 C 32.15625 -52.296875 36.515625 -51.191406 40.265625 -48.984375 C 44.023438 -46.785156 46.9375 -43.679688 49 -39.671875 C 51.0625 -35.660156 52.09375 -30.988281 52.09375 -25.65625 C 52.09375 -20.375 51.070312 -15.738281 49.03125 -11.75 C 46.988281 -7.757812 44.085938 -4.6875 40.328125 -2.53125 C 36.578125 -0.375 32.195312 0.703125 27.1875 0.703125 Z M 27.1875 -10.15625 C 29.226562 -10.15625 30.851562 -10.648438 32.0625 -11.640625 C 33.269531 -12.640625 34.148438 -14.253906 34.703125 -16.484375 C 35.253906 -18.710938 35.53125 -21.703125 35.53125 -25.453125 C 35.53125 -31.203125 34.878906 -35.328125 33.578125 -37.828125 C 32.285156 -40.335938 30.15625 -41.59375 27.1875 -41.59375 C 24.175781 -41.59375 22.007812 -40.335938 20.6875 -37.828125 C 19.363281 -35.328125 18.703125 -31.203125 18.703125 -25.453125 C 18.703125 -21.703125 18.976562 -18.710938 19.53125 -16.484375 C 20.09375 -14.253906 20.988281 -12.640625 22.21875 -11.640625 C 23.445312 -10.648438 25.101562 -10.15625 27.1875 -10.15625 Z M 27.1875 -10.15625 "/></g></g></g><g fill="#abe9cd" fill-opacity="1"><g transform="translate(55.491824, 67.94008)"><g><path d="M 48.265625 -51.609375 C 48.960938 -51.609375 49.3125 -51.210938 49.3125 -50.421875 L 49.3125 -1.25 C 49.3125 -0.882812 49.160156 -0.582031 48.859375 -0.34375 C 48.554688 -0.113281 48.171875 0 47.703125 0 L 38.1875 0 C 37.769531 0 37.429688 -0.0664062 37.171875 -0.203125 C 36.921875 -0.347656 36.628906 -0.628906 36.296875 -1.046875 L 17.171875 -26.984375 C 16.992188 -27.210938 16.832031 -27.300781 16.6875 -27.25 C 16.550781 -27.207031 16.484375 -27.070312 16.484375 -26.84375 L 16.484375 -1.53125 C 16.523438 -0.976562 16.414062 -0.582031 16.15625 -0.34375 C 15.90625 -0.113281 15.457031 0 14.8125 0 L 5.359375 0 C 4.191406 0 3.609375 -0.460938 3.609375 -1.390625 L 3.609375 -50 C 3.609375 -51.070312 4.117188 -51.609375 5.140625 -51.609375 L 16.484375 -51.609375 C 17.085938 -51.609375 17.539062 -51.523438 17.84375 -51.359375 C 18.144531 -51.191406 18.476562 -50.859375 18.84375 -50.359375 L 35.53125 -27.125 C 35.8125 -26.707031 36.066406 -26.5 36.296875 -26.5 C 36.535156 -26.5 36.65625 -26.800781 36.65625 -27.40625 L 36.65625 -50.140625 C 36.65625 -51.117188 37.164062 -51.609375 38.1875 -51.609375 Z M 48.265625 -51.609375 "/></g></g></g><g fill="#abe9cd" fill-opacity="1"><g transform="translate(108.414158, 67.94008)"><g><path d="M 3.609375 -50 C 3.609375 -51.070312 4.050781 -51.609375 4.9375 -51.609375 L 42.5 -51.609375 C 43.332031 -51.609375 43.75 -51.117188 43.75 -50.140625 L 43.671875 -42.078125 C 43.671875 -40.828125 43.070312 -40.203125 41.875 -40.203125 L 21 -40.203125 C 19.9375 -40.203125 19.40625 -39.757812 19.40625 -38.875 L 19.40625 -32.96875 C 19.40625 -32.5 19.519531 -32.132812 19.75 -31.875 C 19.976562 -31.625 20.28125 -31.5 20.65625 -31.5 L 33.171875 -31.5 C 34.148438 -31.5 34.640625 -31.035156 34.640625 -30.109375 L 34.640625 -21.484375 C 34.640625 -20.703125 34.21875 -20.3125 33.375 -20.3125 L 20.515625 -20.3125 C 20.191406 -20.3125 19.925781 -20.21875 19.71875 -20.03125 C 19.507812 -19.84375 19.40625 -19.609375 19.40625 -19.328125 L 19.40625 -12.375 C 19.40625 -12.007812 19.460938 -11.753906 19.578125 -11.609375 C 19.691406 -11.472656 19.910156 -11.40625 20.234375 -11.40625 L 42.84375 -11.40625 C 43.863281 -11.40625 44.375 -10.960938 44.375 -10.078125 L 44.375 -1.53125 C 44.375 -1.0625 44.234375 -0.6875 43.953125 -0.40625 C 43.671875 -0.132812 43.253906 0 42.703125 0 L 5.5 0 C 4.800781 0 4.3125 -0.132812 4.03125 -0.40625 C 3.75 -0.6875 3.609375 -1.128906 3.609375 -1.734375 Z M 3.609375 -50 "/></g></g></g><g fill="#abe9cd" fill-opacity="1"><g transform="translate(155.077616, 67.94008)"><g><path d="M 50.984375 -51.609375 C 51.816406 -51.609375 52.234375 -51.328125 52.234375 -50.765625 C 52.234375 -50.628906 52.140625 -50.375 51.953125 -50 L 35.671875 -23.71875 C 35.347656 -23.25 35.148438 -22.734375 35.078125 -22.171875 C 35.015625 -21.617188 34.984375 -20.601562 34.984375 -19.125 L 34.984375 -2.015625 C 34.984375 -1.273438 34.796875 -0.753906 34.421875 -0.453125 C 34.054688 -0.148438 33.476562 0 32.6875 0 L 21 0 C 20.300781 0 19.820312 -0.132812 19.5625 -0.40625 C 19.3125 -0.6875 19.1875 -1.128906 19.1875 -1.734375 L 19.1875 -20.03125 C 19.1875 -20.675781 19.117188 -21.195312 18.984375 -21.59375 C 18.847656 -21.988281 18.59375 -22.488281 18.21875 -23.09375 L 1.953125 -49.65625 C 1.765625 -49.976562 1.671875 -50.28125 1.671875 -50.5625 C 1.671875 -51.257812 2.179688 -51.609375 3.203125 -51.609375 L 17.171875 -51.609375 C 17.828125 -51.609375 18.304688 -51.515625 18.609375 -51.328125 C 18.910156 -51.140625 19.222656 -50.742188 19.546875 -50.140625 L 28.09375 -34.703125 C 28.320312 -34.242188 28.507812 -34.015625 28.65625 -34.015625 C 28.882812 -34.015625 29.09375 -34.222656 29.28125 -34.640625 L 37.6875 -50.140625 C 37.96875 -50.742188 38.269531 -51.140625 38.59375 -51.328125 C 38.914062 -51.515625 39.40625 -51.609375 40.0625 -51.609375 Z M 50.984375 -51.609375 "/></g></g></g></g></g></g></svg>